<svg width="301" height="35" viewBox="0 0 301 35" fill="none" xmlns="http://www.w3.org/2000/svg">
<g clip-path="url(#clip0_12024_40)">
<path d="M172.588 0H169.867V35H172.588V0Z" fill="white"/>
<path d="M198.115 14.8291H188.346V5.4248H182.82V29.5673H188.346V19.5189H198.115V29.5673H203.674V5.4248H198.115V14.8291Z" fill="white"/>
<path d="M215.817 5.4248L206.058 29.5673H211.761L213.401 25.2243H223.067L224.673 29.5673H230.52L220.828 5.4248H215.826H215.817ZM215.057 20.8483L218.293 12.2778L221.453 20.8483H215.057Z" fill="white"/>
<path d="M245.738 18.6602L237.043 5.4248H233.055V29.5673H238.547V16.208L243.896 24.3738H247.538L252.895 16.208V29.5673H258.387V5.4248H254.399L245.738 18.6602Z" fill="white"/>
<path d="M268.569 19.5189H279.587V14.9695H268.569V10.0816H280.635V5.4248H268.569H267.268H263.034V29.5673H267.268H268.569H280.846V24.9188H268.569V19.5189Z" fill="white"/>
<path d="M290.049 24.8527V5.4248H284.522V29.5673H288.79H290.049H301V24.8527H290.049Z" fill="white"/>
<path d="M19.2318 8.79357C18.0573 7.71194 16.68 6.87802 15.0999 6.30006C13.5197 5.72209 11.8044 5.43311 9.93701 5.43311H0V29.5756H10.0046C11.8467 29.5756 13.5535 29.2784 15.1337 28.6839C16.7138 28.0894 18.0742 27.2555 19.2487 26.1738C20.4233 25.0922 21.3274 23.8124 21.978 22.3428C22.6287 20.8731 22.9582 19.263 22.9582 17.5043C22.9582 15.7457 22.6287 14.0696 21.978 12.6081C21.3274 11.1467 20.4064 9.87519 19.2318 8.79357ZM16.342 21.418C15.7336 22.5244 14.8802 23.3748 13.7648 23.9611C12.6494 24.5473 11.3566 24.8528 9.86096 24.8528H5.52619V10.1477H9.86096C11.3312 10.1477 12.6156 10.4366 13.731 11.0146C14.8379 11.5926 15.6998 12.443 16.3166 13.5411C16.9335 14.6475 17.2461 15.9521 17.2461 17.4548C17.2461 18.9575 16.9419 20.2951 16.3335 21.4098L16.342 21.418Z" fill="white"/>
<path d="M39.0885 5.4248L33.8412 14.2182L28.5854 5.4248H22.2227L31.0358 19.4942V29.5673H36.6043V19.2795L45.3499 5.4248H39.0885Z" fill="white"/>
<path d="M70.058 5.4248H63.239L54.1385 16.2823V5.4248H48.6123V29.5673H54.1385V17.6612L63.5516 29.5673H70.4467L60.0703 16.9181L70.058 5.4248Z" fill="white"/>
<path d="M86.9238 17.2648C86.2479 16.6951 85.4958 16.2327 84.6677 15.8777C83.8397 15.5227 83.0116 15.2089 82.1835 14.9365C81.3554 14.664 80.5949 14.3915 79.9105 14.119C79.226 13.8466 78.6684 13.5246 78.2459 13.1448C77.8234 12.7649 77.6206 12.2861 77.6206 11.6916C77.6206 11.031 77.8994 10.5191 78.4571 10.1724C79.0148 9.81732 79.7753 9.64393 80.7301 9.64393C81.6849 9.64393 82.5046 9.82557 83.2651 10.1889C84.0255 10.5522 84.7776 11.1136 85.5212 11.865L89.1293 8.33938C88.1998 7.34032 87.0168 6.53942 85.5972 5.94494C84.1692 5.35046 82.5891 5.05322 80.84 5.05322C79.0908 5.05322 77.6544 5.33395 76.3278 5.88715C75.0011 6.4486 73.9703 7.25775 73.2267 8.33112C72.4915 9.40448 72.1282 10.6925 72.1282 12.1952C72.1282 13.4007 72.3394 14.4163 72.7619 15.2419C73.1844 16.0594 73.7337 16.7364 74.4265 17.2566C75.111 17.7767 75.8715 18.2226 76.6995 18.5859C77.5276 18.9492 78.3473 19.2629 79.1669 19.5272C79.9865 19.7914 80.7386 20.0638 81.4399 20.3611C82.1412 20.6583 82.6905 21.0134 83.1045 21.4179C83.5101 21.8308 83.7129 22.3509 83.7129 22.9867C83.7129 23.7133 83.3918 24.2913 82.7496 24.7123C82.1074 25.1334 81.2202 25.3481 80.071 25.3481C78.7867 25.3481 77.6628 25.1004 76.6911 24.6133C75.7194 24.1261 74.8406 23.4326 74.0463 22.5408L70.4805 26.0334C71.6719 27.3545 72.9901 28.337 74.4519 28.9728C75.9053 29.6168 77.6628 29.9306 79.7161 29.9306C82.6989 29.9306 85.0395 29.2783 86.7126 27.9655C88.3941 26.6527 89.2306 24.8527 89.2306 22.5408C89.2306 21.2693 89.011 20.2042 88.58 19.362C88.1491 18.5198 87.5914 17.8098 86.9154 17.2483L86.9238 17.2648Z" fill="white"/>
<path d="M90.5312 10.1476H98.2628V29.5673H103.831V10.1476H111.529V5.4248H90.5312V10.1476Z" fill="white"/>
<path d="M129.198 18.7677C130.457 18.1732 131.437 17.3475 132.139 16.2907C132.84 15.2338 133.186 13.9705 133.186 12.5174C133.186 11.1468 132.84 9.93303 132.155 8.85966C131.471 7.7863 130.508 6.95238 129.266 6.34964C128.032 5.7469 126.587 5.44141 124.931 5.44141H114.816V29.5839H120.343V19.6676H120.909L128.252 29.5839H134.792L126.908 19.4695C127.728 19.3209 128.505 19.1062 129.19 18.7842L129.198 18.7677ZM120.351 9.63579H124.306C125.379 9.63579 126.215 9.92477 126.807 10.4945C127.398 11.0642 127.702 11.7825 127.702 12.6495C127.702 13.5164 127.398 14.2843 126.79 14.821C126.181 15.3577 125.345 15.6219 124.272 15.6219H120.351V9.63579Z" fill="white"/>
<path d="M155.046 29.5673H160.893L151.201 5.4248H146.199L136.439 29.5673H142.143L143.782 25.2243H153.449L155.054 29.5673H155.046ZM145.43 20.8483L148.666 12.2778L151.827 20.8483H145.43Z" fill="white"/>
</g>
<defs>
<clipPath id="clip0_12024_40">
<rect width="301" height="35" fill="white"/>
</clipPath>
</defs>
</svg>
